<svg width="138" height="29" viewBox="0 0 138 29" fill="none" xmlns="http://www.w3.org/2000/svg" class="max-md:max-h-[29px]"><path d="M0 0.21875H6.15428L13.0324 19.0982L19.9122 0.21875H26.0294L15.315 28.6357H10.7144L0 0.21875Z" fill="#ED9700"></path><path d="M32.0254 7.61328V28.6345H26.5293V9.43484L32.0254 7.61328Z" fill="#ED9700"></path><path d="M46.8736 23.5351V28.9997C45.3451 28.9997 43.889 28.7082 42.507 28.1252C41.1604 27.5792 39.9584 26.7401 38.94 25.7206C37.8846 24.7011 37.0833 23.498 36.5026 22.1499C35.9201 20.7648 35.6289 19.2718 35.6289 17.7418V3.64285L41.088 1.82129V8.3425H46.8753V13.4432H41.088V17.7418C41.088 20.9485 43.6719 23.5351 46.8753 23.5351H46.8736Z" fill="#ED9700"></path><path d="M66.89 28.6356H61.4309V27.7982C60.0119 28.5261 58.374 28.8918 56.7731 28.8918C55.3541 28.8918 54.0074 28.6373 52.7331 28.0897C51.4959 27.5791 50.368 26.8141 49.422 25.8671C48.4759 24.9201 47.7117 23.7911 47.2017 22.5525C46.6563 21.2769 46.4004 19.9289 46.4004 18.5084C46.4004 17.0879 46.6546 15.7752 47.2017 14.4642C47.7117 13.2257 48.4759 12.1321 49.422 11.1851C50.368 10.2381 51.4959 9.47305 52.7331 8.96248C54.0074 8.41652 55.3541 8.125 56.7731 8.125C58.411 8.125 60.0119 8.52605 61.4309 9.25399V8.125H66.89V28.6373V28.6356ZM56.7714 23.4254C57.6451 23.4254 58.4817 23.2063 59.2459 22.7699C59.9731 22.3335 60.5926 21.7134 60.9932 20.9854C61.4292 20.2575 61.6481 19.3829 61.6481 18.5438C61.6481 17.7787 61.5033 17.0862 61.2104 16.4307C60.8098 15.5932 60.192 14.9007 59.4277 14.3901C58.6265 13.8795 57.7175 13.588 56.7714 13.588C54.0411 13.588 51.8578 15.8106 51.8578 18.5067C51.8578 21.2028 54.0411 23.4254 56.7714 23.4254Z" fill="#ED9700"></path><path d="M77.1378 27.6989C75.4241 26.9743 73.8839 25.9312 72.5591 24.6101C71.241 23.2874 70.2041 21.7455 69.4769 20.0268C68.7278 18.249 68.3457 16.3617 68.3457 14.4155C68.3457 12.4692 68.7278 10.582 69.4769 8.80084C70.2007 7.08544 71.2427 5.5436 72.5625 4.21745C73.8839 2.89468 75.4225 1.85668 77.1411 1.12704C78.9171 0.377187 80.8024 -0.00195312 82.7467 -0.00195312C85.0511 -0.00195312 87.3472 0.555804 89.3773 1.61571C91.3418 2.64023 93.0756 4.12646 94.3819 5.92274L89.7679 9.29624C88.9784 8.21106 87.9296 7.31124 86.7429 6.6945C85.5023 6.04912 84.1556 5.72222 82.7433 5.72222C80.422 5.72222 78.2404 6.62541 76.5991 8.26835C74.9579 9.91129 74.0556 12.0935 74.0556 14.4188C74.0556 16.7442 74.9579 18.9264 76.5991 20.5677C78.2404 22.2106 80.4203 23.1138 82.7433 23.1138C85.0663 23.1138 87.2462 22.2106 88.8858 20.5677C89.8285 19.624 90.527 18.5018 90.9529 17.2784H82.7467V11.5593H97.1476V14.4188C97.1476 16.3651 96.7655 18.2524 96.0164 20.0335C95.2926 21.7489 94.2506 23.2907 92.9292 24.6169C91.6077 25.943 90.0692 26.9776 88.3505 27.7073C86.5746 28.4504 84.6892 28.8329 82.745 28.8329C80.8007 28.8329 78.9171 28.4504 77.1361 27.7005L77.1378 27.6989Z" fill="#ED9700"></path><path d="M97.6035 2.04031L103.317 0.21875V23.2081H116.092V28.6357H97.6035V2.04031Z" fill="#ED9700"></path><path d="M135.631 2.89295C133.914 1.11858 131.405 0.21875 128.173 0.21875H117.873V28.6357H123.586V5.64635H127.845C129.254 5.64635 130.382 5.98168 131.102 6.61863C131.816 7.24211 132.176 8.19249 132.176 9.43438C132.176 10.6763 131.826 11.5694 131.139 12.2063C130.331 12.9528 129.054 13.3319 127.337 13.3319H126.377V18.7595H127.628C129.106 18.7595 130.469 18.5809 131.678 18.2321C132.968 17.8563 134.084 17.2851 135.004 16.5302C135.976 15.7332 136.725 14.7339 137.231 13.5611C137.741 12.3765 137.999 11.015 137.999 9.50515C137.999 6.7804 137.181 4.49208 135.629 2.88958L135.631 2.89295Z" fill="#ED9700"></path></svg>